<?xml version="1.0" encoding="UTF-8" standalone="no"?>
<svg
   xmlns:dc="http://purl.org/dc/elements/1.1/"
   xmlns:cc="http://creativecommons.org/ns#"
   xmlns:rdf="http://www.w3.org/1999/02/22-rdf-syntax-ns#"
   xmlns:svg="http://www.w3.org/2000/svg"
   xmlns="http://www.w3.org/2000/svg"
   xmlns:xlink="http://www.w3.org/1999/xlink"
   xmlns:sodipodi="http://sodipodi.sourceforge.net/DTD/sodipodi-0.dtd"
   xmlns:inkscape="http://www.inkscape.org/namespaces/inkscape"
   inkscape:version="1.0 (4035a4fb49, 2020-05-01)"
   sodipodi:docname="button-crear-gifo-hover.svg"
   id="svg1023"
   version="1.1"
   viewBox="0 0 16 16"
   height="16px"
   width="16px">
  <metadata
     id="metadata1027">
    <rdf:RDF>
      <cc:Work
         rdf:about="">
        <dc:format>image/svg+xml</dc:format>
        <dc:type
           rdf:resource="http://purl.org/dc/dcmitype/StillImage" />
        <dc:title>button-crear-gifo</dc:title>
      </cc:Work>
    </rdf:RDF>
  </metadata>
  <sodipodi:namedview
     inkscape:current-layer="svg1023"
     inkscape:window-maximized="1"
     inkscape:window-y="-8"
     inkscape:window-x="-8"
     inkscape:cy="8"
     inkscape:cx="8"
     inkscape:zoom="51.6875"
     showgrid="false"
     id="namedview1025"
     inkscape:window-height="1017"
     inkscape:window-width="1920"
     inkscape:pageshadow="2"
     inkscape:pageopacity="0"
     guidetolerance="10"
     gridtolerance="10"
     objecttolerance="10"
     borderopacity="1"
     bordercolor="#666666"
     pagecolor="#ffffff" />
  <!-- Generator: Sketch 63.1 (92452) - https://sketch.com -->
  <title
     id="title1008">button-crear-gifo</title>
  <desc
     id="desc1010">Created with Sketch.</desc>
  <defs
     id="defs1013">
    <path
       id="path-1"
       d="M8,0 C8.55228475,0 9,0.44771525 9,1 L9,1 L9,7 L15,7 C15.5128358,7 15.9355072,7.38604019 15.9932723,7.88337887 L16,8 C16,8.55228475 15.5522847,9 15,9 L15,9 L9,9 L9,15 C9,15.5128358 8.61395981,15.9355072 8.11662113,15.9932723 L8,16 C7.44771525,16 7,15.5522847 7,15 L7,15 L7,9 L1,9 C0.487164161,9 0.0644928393,8.61395981 0.00672773133,8.11662113 L0,8 C0,7.44771525 0.44771525,7 1,7 L1,7 L7,7 L7,1 C7,0.487164161 7.38604019,0.0644928393 7.88337887,0.00672773133 Z" />
  </defs>
  <g
     style="fill:#ffffff;fill-opacity:1"
     fill-rule="evenodd"
     fill="none"
     stroke-width="1"
     stroke="none"
     id="GIFOS">
    <g
       style="fill:#ffffff;fill-opacity:1"
       transform="translate(-188.000000, -2784.000000)"
       id="00-UI-Kit">
      <g
         style="fill:#ffffff;fill-opacity:1"
         transform="translate(188.000000, 2784.000000)"
         id="button-crear-gifo">
        <mask
           fill="white"
           id="mask-2">
          <use
             id="use1015"
             xlink:href="#path-1" />
        </mask>
        <use
           style="fill:#ffffff;fill-opacity:1"
           id="use1018"
           xlink:href="#path-1"
           fill-rule="nonzero"
           fill="#572EE5" />
      </g>
    </g>
  </g>
</svg>
