<?xml version="1.0" encoding="UTF-8" standalone="no"?>
<svg
   xmlns:dc="http://purl.org/dc/elements/1.1/"
   xmlns:cc="http://creativecommons.org/ns#"
   xmlns:rdf="http://www.w3.org/1999/02/22-rdf-syntax-ns#"
   xmlns:svg="http://www.w3.org/2000/svg"
   xmlns="http://www.w3.org/2000/svg"
   xmlns:xlink="http://www.w3.org/1999/xlink"
   xmlns:sodipodi="http://sodipodi.sourceforge.net/DTD/sodipodi-0.dtd"
   xmlns:inkscape="http://www.inkscape.org/namespaces/inkscape"
   inkscape:version="1.0 (4035a4fb49, 2020-05-01)"
   sodipodi:docname="button-close-modo-noc.svg"
   id="svg867"
   version="1.1"
   viewBox="0 0 14 14"
   height="14px"
   width="14px">
  <metadata
     id="metadata871">
    <rdf:RDF>
      <cc:Work
         rdf:about="">
        <dc:format>image/svg+xml</dc:format>
        <dc:type
           rdf:resource="http://purl.org/dc/dcmitype/StillImage" />
      </cc:Work>
    </rdf:RDF>
  </metadata>
  <sodipodi:namedview
     inkscape:current-layer="svg867"
     inkscape:window-maximized="1"
     inkscape:window-y="-8"
     inkscape:window-x="-8"
     inkscape:cy="7"
     inkscape:cx="7"
     inkscape:zoom="59.071429"
     showgrid="false"
     id="namedview869"
     inkscape:window-height="1017"
     inkscape:window-width="1920"
     inkscape:pageshadow="2"
     inkscape:pageopacity="0"
     guidetolerance="10"
     gridtolerance="10"
     objecttolerance="10"
     borderopacity="1"
     bordercolor="#666666"
     pagecolor="#ffffff" />
  <!-- Generator: Sketch 63.1 (92452) - https://sketch.com -->
  <title
     id="title853">button-close</title>
  <desc
     id="desc855">Created with Sketch.</desc>
  <defs
     id="defs858">
    <path
       id="path-1"
       d="M13.2928932,13.2928932 C13.6834175,12.9023689 14.3165825,12.9023689 14.7071068,13.2928932 L14.7071068,13.2928932 L20,18.585 L25.2928932,13.2928932 C25.6533772,12.9324093 26.2206082,12.9046797 26.6128994,13.2097046 L26.7071068,13.2928932 C27.0976311,13.6834175 27.0976311,14.3165825 26.7071068,14.7071068 L26.7071068,14.7071068 L21.415,20 L26.7071068,25.2928932 C27.0675907,25.6533772 27.0953203,26.2206082 26.7902954,26.6128994 L26.7071068,26.7071068 C26.3165825,27.0976311 25.6834175,27.0976311 25.2928932,26.7071068 L25.2928932,26.7071068 L20,21.415 L14.7071068,26.7071068 C14.3466228,27.0675907 13.7793918,27.0953203 13.3871006,26.7902954 L13.2928932,26.7071068 C12.9023689,26.3165825 12.9023689,25.6834175 13.2928932,25.2928932 L13.2928932,25.2928932 L18.585,20 L13.2928932,14.7071068 C12.9324093,14.3466228 12.9046797,13.7793918 13.2097046,13.3871006 Z" />
  </defs>
  <g
     style="fill:#ffffff;fill-opacity:1"
     fill-rule="evenodd"
     fill="none"
     stroke-width="1"
     stroke="none"
     id="GIFOS">
    <g
       style="fill:#ffffff;fill-opacity:1"
       transform="translate(-189.000000, -2871.000000)"
       id="00-UI-Kit">
      <g
         style="fill:#ffffff;fill-opacity:1"
         transform="translate(176.000000, 2858.000000)"
         id="Button-Slider-right">
        <mask
           fill="white"
           id="mask-2">
          <use
             id="use860"
             xlink:href="#path-1" />
        </mask>
        <use
           style="fill:#ffffff;fill-opacity:1"
           xlink:href="#path-1"
           fill-rule="nonzero"
           fill="#572EE5"
           id="button-close" />
      </g>
    </g>
  </g>
</svg>
