<?xml version="1.0" encoding="UTF-8" standalone="no"?>
<svg
   xmlns:dc="http://purl.org/dc/elements/1.1/"
   xmlns:cc="http://creativecommons.org/ns#"
   xmlns:rdf="http://www.w3.org/1999/02/22-rdf-syntax-ns#"
   xmlns:svg="http://www.w3.org/2000/svg"
   xmlns="http://www.w3.org/2000/svg"
   xmlns:xlink="http://www.w3.org/1999/xlink"
   xmlns:sodipodi="http://sodipodi.sourceforge.net/DTD/sodipodi-0.dtd"
   xmlns:inkscape="http://www.inkscape.org/namespaces/inkscape"
   inkscape:version="1.0 (4035a4fb49, 2020-05-01)"
   sodipodi:docname="camara-luz-modo-noc.svg"
   id="svg1417"
   version="1.1"
   viewBox="0 0 180 162"
   height="162"
   width="180">
  <metadata
     id="metadata1421">
    <rdf:RDF>
      <cc:Work
         rdf:about="">
        <dc:format>image/svg+xml</dc:format>
        <dc:type
           rdf:resource="http://purl.org/dc/dcmitype/StillImage" />
        <dc:title>camara-modo-noc</dc:title>
      </cc:Work>
    </rdf:RDF>
  </metadata>
  <sodipodi:namedview
     inkscape:current-layer="svg1417"
     inkscape:window-maximized="1"
     inkscape:window-y="-8"
     inkscape:window-x="-8"
     inkscape:cy="81"
     inkscape:cx="88.23591"
     inkscape:zoom="5.1049383"
     showgrid="false"
     id="namedview1419"
     inkscape:window-height="1017"
     inkscape:window-width="1920"
     inkscape:pageshadow="2"
     inkscape:pageopacity="0"
     guidetolerance="10"
     gridtolerance="10"
     objecttolerance="10"
     borderopacity="1"
     bordercolor="#666666"
     pagecolor="#ffffff" />
  <!-- Generator: Sketch 63.1 (92452) - https://sketch.com -->
  <title
     id="title1128">camara-modo-noc</title>
  <desc
     id="desc1130">Created with Sketch.</desc>
  <defs
     id="defs1264">
    <path
       id="path-1"
       d="m 9.70675,0.31247431 c -5.1019375,0 -9.25254688,4.14796839 -9.25254688,9.24616599 v 0 30.2370117 c 0,5.098198 4.15060938,9.246807 9.25254688,9.246807 v 0 h 76.532906 c 5.101938,0 9.253188,-4.148609 9.253188,-9.246807 v 0 -30.2370117 c 0,-5.0981976 -4.15125,-9.24616599 -9.253188,-9.24616599 v 0 z M 1.8353906,39.795652 V 9.5586403 c 0,-4.3368616 3.5317656,-7.8656442 7.8713594,-7.8656442 v 0 h 76.532906 c 4.339594,0 7.872,3.5287826 7.872,7.8656442 v 0 30.2370117 c 0,4.337502 -3.532406,7.866285 -7.872,7.866285 v 0 H 9.70675 c -4.3395938,0 -7.8713594,-3.528783 -7.8713594,-7.866285 z" />
    <linearGradient
       id="linearGradient-3"
       y2="0.49999738"
       x2="1.0000006"
       y1="0.49999738"
       x1="-3.3710137e-06">
      <stop
         id="stop1133"
         offset="0%"
         stop-color="#7C72FF" />
      <stop
         id="stop1135"
         offset="100%"
         stop-color="#6D64F4" />
    </linearGradient>
    <path
       id="path-4"
       d="m 32.119016,0.573083 c -17.533266,0 -31.79742225,14.257281 -31.79742225,31.782095 v 0 c 0,17.524814 14.26415625,31.781454 31.79742225,31.781454 v 0 c 17.533265,0 31.798062,-14.25664 31.798062,-31.781454 v 0 c 0,-17.524814 -14.264797,-31.782095 -31.798062,-31.782095 z M 1.7027812,32.355178 C 1.7027812,15.5917 15.348094,1.9536047 32.119016,1.9536047 v 0 c 16.771562,0 30.416234,13.6380953 30.416234,30.4015733 v 0 c 0,16.762838 -13.644672,30.400933 -30.416234,30.400933 v 0 c -16.770922,0 -30.4162348,-13.638095 -30.4162348,-30.400933 z" />
    <linearGradient
       id="linearGradient-6"
       y2="0.49999794"
       x2="0.99999487"
       y1="0.49999794"
       x1="-5.0830554e-06">
      <stop
         id="stop1139"
         offset="0%"
         stop-color="#7C72FF" />
      <stop
         id="stop1141"
         offset="100%"
         stop-color="#6D64F4" />
    </linearGradient>
    <path
       id="path-7"
       d="m 0,23.269091 c 0,12.648166 10.295484,22.938688 22.94975,22.938688 v 0 c 12.655547,0 22.951031,-10.290522 22.951031,-22.938688 v 0 c 0,-12.648166 -10.295484,-22.93868784 -22.951031,-22.93868784 v 0 C 10.295484,0.33040316 0,10.620925 0,23.269091 m 1.3811875,0 c 0,-11.88683 9.6753595,-21.5581661 21.5685625,-21.5581661 v 0 c 11.892562,0 21.569203,9.6713361 21.569203,21.5581661 v 0 c 0,11.88683 -9.676641,21.558166 -21.569203,21.558166 v 0 c -11.893203,0 -21.5685625,-9.671336 -21.5685625,-21.558166" />
    <linearGradient
       id="linearGradient-9"
       y2="0.49999782"
       x2="0.99999297"
       y1="0.49999782"
       x1="0">
      <stop
         id="stop1145"
         offset="0%"
         stop-color="#7C72FF" />
      <stop
         id="stop1147"
         offset="100%"
         stop-color="#6D64F4" />
    </linearGradient>
    <path
       id="path-10"
       d="m 0.01857813,6.1015731 c 0,3.215668 2.61759377,5.8319999 5.83481247,5.8319999 v 0 c 3.2172188,0 5.8348124,-2.6163319 5.8348124,-5.8319999 v 0 c 0,-3.215668 -2.6175936,-5.83199998 -5.8348124,-5.83199998 v 0 c -3.2172187,0 -5.83481247,2.61633198 -5.83481247,5.83199998 m 0.61051562,0 c 0,-2.8795019 2.34340625,-5.22177863 5.22429685,-5.22177863 v 0 c 2.8808907,0 5.2249374,2.34227673 5.2249374,5.22177863 v 0 c 0,2.879502 -2.3440467,5.2224189 -5.2249374,5.2224189 v 0 c -2.8808906,0 -5.22429685,-2.3429169 -5.22429685,-5.2224189" />
    <linearGradient
       id="linearGradient-12"
       y2="0.49998868"
       x2="0.99999911"
       y1="0.49998868"
       x1="3.8427754e-07">
      <stop
         id="stop1151"
         offset="0%"
         stop-color="#7C72FF" />
      <stop
         id="stop1153"
         offset="100%"
         stop-color="#6D64F4" />
    </linearGradient>
    <path
       id="path-13"
       d="m 1.3011094,0.27853755 c -0.38181253,0 -0.6912344,0.30863241 -0.6912344,0.69026087 v 0 0.29134388 c 0,4.2305692 3.4446406,7.6716285 7.6759688,7.6716285 v 0 H 24.877391 c 4.23325,0 7.67789,-3.4410593 7.67789,-7.6716285 v 0 -0.29134388 c 0,-0.38162846 -0.309422,-0.69026087 -0.690594,-0.69026087 v 0 z M 2.003875,1.6590593 h 29.157406 c -0.206281,3.2841818 -2.946234,5.89283 -6.28389,5.89283 v 0 H 8.2858438 c -3.3357344,0 -6.0756876,-2.6086482 -6.2819688,-5.89283 z" />
    <linearGradient
       id="linearGradient-15"
       y2="0.50001085"
       x2="0.99999791"
       y1="0.50001085"
       x1="1.3993503e-05">
      <stop
         id="stop1157"
         offset="0%"
         stop-color="#7C72FF" />
      <stop
         id="stop1159"
         offset="100%"
         stop-color="#6D64F4" />
    </linearGradient>
    <path
       id="path-16"
       d="M 0.51698438,1.1986719 V 48.694127 c 0,0.380988 0.30878124,0.68962 0.69059372,0.68962 v 0 c 0.3818125,0 0.6905938,-0.308632 0.6905938,-0.68962 v 0 -47.4954551 c 0,-0.38226874 -0.3087813,-0.69026083 -0.6905938,-0.69026083 v 0 c -0.38181248,0 -0.69059372,0.30799209 -0.69059372,0.69026083" />
    <linearGradient
       id="linearGradient-18"
       y2="0.5"
       x2="0.99995077"
       y1="0.5"
       x1="-0.0001419295">
      <stop
         id="stop1163"
         offset="0%"
         stop-color="#7C72FF" />
      <stop
         id="stop1165"
         offset="100%"
         stop-color="#6D64F4" />
    </linearGradient>
    <path
       id="path-19"
       d="M 48.766297,0.71011067 0.68995312,48.766482 c -0.27034375,0.269573 -0.27034375,0.706269 0,0.976482 v 0 c 0.13453125,0.134467 0.31134378,0.2017 0.48815628,0.2017 v 0 c 0.1768125,0 0.353625,-0.06723 0.4881562,-0.2017 v 0 L 49.742609,1.6865929 c 0.269703,-0.2702135 0.269703,-0.70626879 0,-0.97648223 v 0 c -0.134531,-0.1344664 -0.311343,-0.2016996 -0.488156,-0.2016996 v 0 c -0.176812,0 -0.353625,0.0672332 -0.488156,0.2016996" />
    <linearGradient
       id="linearGradient-21"
       y2="0.4999958"
       x2="1.0000087"
       y1="0.4999958"
       x1="1.9390627e-06">
      <stop
         id="stop1169"
         offset="0%"
         stop-color="#7C72FF" />
      <stop
         id="stop1171"
         offset="100%"
         stop-color="#6D64F4" />
    </linearGradient>
    <path
       id="path-22"
       d="m 0.71942187,0.71011067 c -0.26970312,0.27021344 -0.26970312,0.70626873 0,0.97648223 v 0 L 48.795766,49.742964 c 0.135171,0.134467 0.311984,0.2017 0.488796,0.2017 v 0 c 0.176172,0 0.352985,-0.06723 0.488157,-0.2017 v 0 c 0.269703,-0.270213 0.269703,-0.706909 0,-0.976482 v 0 L 1.6957344,0.71011067 C 1.5612031,0.57564427 1.3843906,0.50841107 1.2075781,0.50841107 v 0 c -0.1768125,0 -0.35362497,0.0672332 -0.48815623,0.2016996" />
    <linearGradient
       id="linearGradient-24"
       y2="0.4999958"
       x2="1.0000026"
       y1="0.4999958"
       x1="-4.2369093e-06">
      <stop
         id="stop1175"
         offset="0%"
         stop-color="#7C72FF" />
      <stop
         id="stop1177"
         offset="100%"
         stop-color="#6D64F4" />
    </linearGradient>
    <path
       id="path-25"
       d="m 0.96221875,0.39379447 c -0.38245313,0 -0.69059375,0.30863241 -0.69059375,0.69026083 v 0 5.1321344 c 0,0.3809882 0.30814062,0.6902609 0.69059375,0.6902609 v 0 H 26.432828 c 0.381813,0 0.691234,-0.3092727 0.691234,-0.6902609 v 0 -5.1321344 c 0,-0.38162842 -0.309421,-0.69026083 -0.691234,-0.69026083 v 0 z M 1.6528125,5.5252885 H 25.742234 V 1.7743162 H 1.6528125 Z" />
    <linearGradient
       id="linearGradient-27"
       y2="0.49996555"
       x2="0.99998564"
       y1="0.49996555"
       x1="-2.3714094e-06">
      <stop
         id="stop1181"
         offset="0%"
         stop-color="#7C72FF" />
      <stop
         id="stop1183"
         offset="100%"
         stop-color="#6D64F4" />
    </linearGradient>
    <path
       id="path-28"
       d="m 1.2447344,0.39379447 c -0.38181253,0 -0.69059377,0.30863241 -0.69059377,0.69026083 v 0 5.1321344 c 0,0.3809882 0.30878124,0.6902609 0.69059377,0.6902609 v 0 h 5.2447968 c 0.3818126,0 0.6905938,-0.3092727 0.6905938,-0.6902609 v 0 -5.1321344 c 0,-0.38162842 -0.3087812,-0.69026083 -0.6905938,-0.69026083 v 0 z M 1.9353281,5.5252885 H 5.7989375 V 1.7743162 H 1.9353281 Z" />
    <linearGradient
       id="linearGradient-30"
       y2="0.49996555"
       x2="1.0000482"
       y1="0.49996555"
       x1="-1.9385092e-05">
      <stop
         id="stop1187"
         offset="0%"
         stop-color="#7C72FF" />
      <stop
         id="stop1189"
         offset="100%"
         stop-color="#6D64F4" />
    </linearGradient>
    <path
       id="path-31"
       d="m 0.96221875,0.37458498 c -0.38245313,0 -0.69059375,0.30799209 -0.69059375,0.69026082 v 0 c 0,0.3809882 0.30814062,0.6902609 0.69059375,0.6902609 v 0 H 26.432828 c 0.381813,0 0.691234,-0.3092727 0.691234,-0.6902609 v 0 c 0,-0.38226873 -0.309421,-0.69026082 -0.691234,-0.69026082 v 0 z" />
    <linearGradient
       id="linearGradient-33"
       y2="0.49981338"
       x2="0.99998564"
       y1="0.49981338"
       x1="-2.3714094e-06">
      <stop
         id="stop1193"
         offset="0%"
         stop-color="#7C72FF" />
      <stop
         id="stop1195"
         offset="100%"
         stop-color="#6D64F4" />
    </linearGradient>
    <path
       id="path-34"
       d="m 0.96221875,0.42901186 c -0.38245313,0 -0.69059375,0.30927273 -0.69059375,0.69026084 v 0 c 0,0.3816285 0.30814062,0.6909012 0.69059375,0.6909012 v 0 H 35.958281 c 0.381813,0 0.690594,-0.3092727 0.690594,-0.6909012 v 0 c 0,-0.38098811 -0.308781,-0.69026084 -0.690594,-0.69026084 v 0 z" />
    <linearGradient
       id="linearGradient-36"
       y2="0.49978992"
       x2="1.0000088"
       y1="0.49978992"
       x1="-1.7504931e-06">
      <stop
         id="stop1199"
         offset="0%"
         stop-color="#7C72FF" />
      <stop
         id="stop1201"
         offset="100%"
         stop-color="#6D64F4" />
    </linearGradient>
    <path
       id="path-37"
       d="M 12.039906,0.24972332 0.46445313,6.9301423 C 0.25176563,7.0543636 0.11979687,7.2816759 0.11979687,7.5281976 v 0 16.3696834 c 0,0.246522 0.13196876,0.473834 0.34465626,0.597415 v 0 L 12.039906,31.175715 c 0.105703,0.06083 0.226141,0.09221 0.345297,0.09221 v 0 c 0.117875,0 0.238313,-0.03138 0.345297,-0.09221 v 0 c 0.212688,-0.123581 0.345297,-0.351533 0.345297,-0.598055 v 0 -29.72988134 c 0,-0.24652174 -0.132609,-0.473834 -0.345297,-0.59805534 v 0 c -0.106984,-0.06083 -0.226141,-0.0915652 -0.345938,-0.0915652 v 0 c -0.119156,0 -0.238312,0.0307352 -0.344656,0.0915652 z M 1.5003438,23.498964 V 7.9264743 L 11.694609,2.0445296 V 29.381549 Z" />
    <linearGradient
       id="linearGradient-39"
       y2="0.49999917"
       x2="0.9999851"
       y1="0.49999917"
       x1="-1.9793315e-05">
      <stop
         id="stop1205"
         offset="0%"
         stop-color="#7C72FF" />
      <stop
         id="stop1207"
         offset="100%"
         stop-color="#6D64F4" />
    </linearGradient>
    <path
       id="path-40"
       d="M 5.3428125,0.68321739 0.50865625,3.4737154 C 0.29532813,3.5960158 0.16335937,3.8246087 0.16335937,4.0711304 v 0 33.5269566 c 0,0.246522 0.13196876,0.475115 0.34529688,0.598055 v 0 l 4.83415625,2.791139 c 0.1069844,0.06147 0.2274219,0.0922 0.3459375,0.0922 v 0 c 0.1185156,0 0.2389531,-0.03073 0.3452969,-0.0922 v 0 C 6.2467344,40.8637 6.3793438,40.636387 6.3793438,40.389225 v 0 -39.1079523 c 0,-0.2465217 -0.1326094,-0.47447428 -0.3452969,-0.59805531 v 0 C 5.9277031,0.62174704 5.8079062,0.59101186 5.68875,0.59101186 v 0 c -0.1197969,0 -0.2389531,0.0307352 -0.3459375,0.0922055 z M 1.5445469,37.19981 V 4.4700474 L 4.9975156,2.4780237 V 39.193115 Z" />
    <linearGradient
       id="linearGradient-42"
       y2="0.50000507"
       x2="1.0000098"
       y1="0.50000507"
       x1="-6.2403378e-05">
      <stop
         id="stop1211"
         offset="0%"
         stop-color="#7C72FF" />
      <stop
         id="stop1213"
         offset="100%"
         stop-color="#6D64F4" />
    </linearGradient>
    <path
       id="path-43"
       d="m 0.47598438,0.24203953 c -0.11531251,0.099249 -0.1819375,0.24203952 -0.1819375,0.39315415 v 0 15.23696432 c 0,0.204261 0.12107812,0.388672 0.30814062,0.471913 v 0 c 2.0634531,0.91117 3.7015312,2.548459 4.6131406,4.610917 v 0 c 0.081359,0.186972 0.2677813,0.307352 0.4715,0.307352 v 0 H 20.931781 c 0.151188,0 0.294688,-0.06595 0.393985,-0.180569 v 0 c 0.09737,-0.115898 0.139656,-0.268293 0.116593,-0.416846 v 0 C 19.747906,10.072814 11.49025,1.818498 0.89303125,0.12486166 v 0 C 0.86676562,0.12101976 0.8405,0.11909881 0.81423437,0.11909881 v 0 c -0.123,0 -0.2434375,0.0429012 -0.33824999,0.12294072 M 1.327375,15.541755 V 1.2479763 C 10.996328,3.0434229 18.52175,10.566498 20.318062,20.23015 v 0 H 6.0186719 C 5.027625,18.178577 3.3812188,16.531043 1.327375,15.541755" />
    <linearGradient
       id="linearGradient-45"
       y2="0.50000507"
       x2="1.0000089"
       y1="0.50000507"
       x1="4.6091018e-06">
      <stop
         id="stop1217"
         offset="0%"
         stop-color="#7C72FF" />
      <stop
         id="stop1219"
         offset="100%"
         stop-color="#6D64F4" />
    </linearGradient>
    <path
       id="path-46"
       d="M 21.065672,0.12486166 C 10.467813,1.818498 2.208875,10.072814 0.51442187,20.664925 v 0 c -0.0237031,0.148553 0.0192188,0.300948 0.11723438,0.416846 v 0 c 0.0986563,0.114616 0.24151562,0.180569 0.39398435,0.180569 v 0 H 16.268672 c 0.205,0 0.3895,-0.12038 0.472781,-0.307352 v 0 c 0.91225,-2.063099 2.55161,-3.700387 4.614422,-4.610917 v 0 c 0.187062,-0.08324 0.3075,-0.267652 0.3075,-0.471913 v 0 -15.23696432 c 0,-0.15111463 -0.06598,-0.29390514 -0.181297,-0.39315415 v 0 C 21.387266,0.162 21.266828,0.11909881 21.143828,0.11909881 v 0 c -0.02562,0 -0.05189,0.001921 -0.07816,0.005763 M 20.630687,1.2479763 V 15.541755 c -2.053203,0.988008 -3.70089,2.634901 -4.691937,4.688395 v 0 H 1.6387187 C 3.4350313,10.565217 10.961094,3.0434229 20.630687,1.2479763" />
    <linearGradient
       id="linearGradient-48"
       y2="0.50000507"
       x2="1.0000154"
       y1="0.50000507"
       x1="1.8026433e-06">
      <stop
         id="stop1223"
         offset="0%"
         stop-color="#7C72FF" />
      <stop
         id="stop1225"
         offset="100%"
         stop-color="#6D64F4" />
    </linearGradient>
    <path
       id="path-49"
       d="m 1.0256406,0.54426877 c -0.15246873,0 -0.2953281,0.0665929 -0.39398435,0.18120949 v 0 C 0.53364062,0.84073518 0.49071875,0.99313044 0.51442187,1.1423241 v 0 C 2.208875,11.733154 10.466531,19.988111 21.065672,21.683028 v 0 c 0.02691,0.0038 0.05381,0.0064 0.08136,0.0064 v 0 c 0.121719,0 0.241516,-0.04354 0.335047,-0.122941 v 0 c 0.115313,-0.09861 0.181297,-0.242039 0.181297,-0.394435 v 0 -15.2363238 c 0,-0.2049012 -0.120438,-0.3899525 -0.3075,-0.4725533 v 0 C 19.293063,4.5526482 17.653703,2.9153597 16.741453,0.85162055 v 0 C 16.658172,0.66528854 16.473672,0.54426877 16.268672,0.54426877 v 0 z M 1.6387187,1.5764585 H 15.93875 c 0.991047,2.0528538 2.638734,3.699747 4.691937,4.6890356 v 0 14.2937789 C 10.961094,18.763186 3.4350313,11.240111 1.6387187,1.5764585 Z" />
    <linearGradient
       id="linearGradient-51"
       y2="0.4999865"
       x2="1.0000154"
       y1="0.4999865"
       x1="1.8026433e-06">
      <stop
         id="stop1229"
         offset="0%"
         stop-color="#7C72FF" />
      <stop
         id="stop1231"
         offset="100%"
         stop-color="#6D64F4" />
    </linearGradient>
    <path
       id="path-52"
       d="m 5.6868281,0.54426877 c -0.2037187,0 -0.3901406,0.12101977 -0.4715,0.30735178 v 0 C 4.3037187,2.9147194 2.6656406,4.5513676 0.6021875,5.4631779 v 0 C 0.415125,5.5457787 0.29404688,5.73083 0.29404688,5.9357312 v 0 15.2363238 c 0,0.152396 0.066625,0.295826 0.1819375,0.394435 v 0 c 0.0941719,0.0794 0.2126875,0.122941 0.33504687,0.122941 v 0 c 0.0269063,0 0.0538125,-0.0026 0.082,-0.0064 v 0 C 11.49025,19.988111 19.747906,11.733154 21.442359,1.1423241 v 0 c 0.02306,-0.14919366 -0.01922,-0.30158892 -0.116593,-0.41684584 v 0 c -0.0993,-0.1146166 -0.242797,-0.18120949 -0.393985,-0.18120949 v 0 z M 1.327375,6.2654941 C 3.3812188,5.2755652 5.027625,3.6286719 6.0186719,1.5764585 v 0 H 20.318062 C 18.523031,11.240111 10.996328,18.763186 1.327375,20.559273 v 0 z" />
    <linearGradient
       id="linearGradient-54"
       y2="0.4999865"
       x2="1.0000089"
       y1="0.4999865"
       x1="4.6091018e-06">
      <stop
         id="stop1235"
         offset="0%"
         stop-color="#7C72FF" />
      <stop
         id="stop1237"
         offset="100%"
         stop-color="#6D64F4" />
    </linearGradient>
    <path
       id="path-55"
       d="m 0.7046875,0.35601581 c -0.0813594,0.0704348 -0.128125,0.17096443 -0.128125,0.27853755 v 0 10.77203964 c 0,0.144711 0.0852031,0.275336 0.21717187,0.333605 v 0 c 1.45934373,0.644158 2.61759373,1.801849 3.26142183,3.26049 v 0 c 0.057656,0.131265 0.189625,0.217067 0.3337657,0.217067 v 0 H 15.166797 c 0.106984,0 0.208844,-0.04674 0.278672,-0.128063 v 0 c 0.06855,-0.08132 0.0993,-0.189534 0.082,-0.294546 v 0 C 14.3295,7.3066482 8.492125,1.4714466 0.999375,0.27341502 v 0 c -0.0185781,-0.002561 -0.0371563,-0.003842 -0.0557344,-0.003842 v 0 c -0.087125,0 -0.1716875,0.0300949 -0.23895312,0.0864427 M 1.306875,11.173518 V 1.0680474 c 6.8354688,1.2691068 12.1565,6.5875731 13.426219,13.4197476 v 0 H 4.6233906 C 3.9231875,13.037478 2.7585313,11.872743 1.306875,11.173518" />
    <linearGradient
       id="linearGradient-57"
       y2="0.50000286"
       x2="1.0000107"
       y1="0.50000286"
       x1="-1.3497313e-05">
      <stop
         id="stop1241"
         offset="0%"
         stop-color="#7C72FF" />
      <stop
         id="stop1243"
         offset="100%"
         stop-color="#6D64F4" />
    </linearGradient>
    <path
       id="path-58"
       d="M 14.551797,0.27341502 C 7.0603281,1.4714466 1.2203906,7.3066482 0.02242188,14.795146 v 0 c -0.01601563,0.105012 0.01345312,0.213226 0.08328125,0.294546 v 0 c 0.0698281,0.08132 0.17104687,0.128063 0.27739062,0.128063 v 0 H 11.160969 c 0.14414,0 0.275469,-0.0858 0.333765,-0.217067 v 0 c 0.64511,-1.459281 1.804,-2.616973 3.262704,-3.26049 v 0 c 0.131968,-0.05827 0.217812,-0.188894 0.217812,-0.333605 v 0 -10.77203964 c 0,-0.10757312 -0.04741,-0.20810277 -0.128766,-0.27853755 v 0 c -0.06727,-0.0563478 -0.152468,-0.0864427 -0.238953,-0.0864427 v 0 c -0.01858,0 -0.03716,0.001281 -0.05573,0.003842 M 14.243656,1.0680474 V 11.173518 c -1.450375,0.698585 -2.615672,1.86332 -3.316515,3.314277 v 0 H 0.8174375 C 2.0871563,7.6556205 7.4081875,2.3371542 14.243656,1.0680474" />
    <linearGradient
       id="linearGradient-60"
       y2="0.50000286"
       x2="0.99997771"
       y1="0.50000286"
       x1="-1.1857783e-07">
      <stop
         id="stop1247"
         offset="0%"
         stop-color="#7C72FF" />
      <stop
         id="stop1249"
         offset="100%"
         stop-color="#6D64F4" />
    </linearGradient>
    <path
       id="path-61"
       d="m 0.38309375,0.1856917 c -0.10634375,0 -0.2075625,0.0473834 -0.27739062,0.12870356 v 0 C 0.035875,0.39571542 0.00640625,0.50328854 0.02242188,0.60894071 v 0 C 1.2203906,8.0967984 7.0590469,13.933281 14.551797,15.131312 v 0 c 0.01922,0.0026 0.03844,0.0045 0.05766,0.0045 v 0 c 0.08648,0 0.171047,-0.03138 0.237031,-0.08708 v 0 c 0.08136,-0.0698 0.128766,-0.170965 0.128766,-0.279178 v 0 -10.7713996 c 0,-0.1453518 -0.08584,-0.275336 -0.217812,-0.3342451 v 0 C 13.298734,3.0197312 12.139844,1.8626798 11.494734,0.40339921 v 0 C 11.436438,0.27213439 11.305109,0.1856917 11.160969,0.1856917 v 0 z M 0.8174375,0.91565217 H 10.927141 c 0.700843,1.45223713 1.86614,2.61697233 3.316515,3.31491703 v 0 V 14.33732 C 7.4081875,13.066933 2.0871563,7.7484664 0.8174375,0.91565217 Z" />
    <linearGradient
       id="linearGradient-63"
       y2="0.5000028"
       x2="0.99997771"
       y1="0.5000028"
       x1="-1.1857783e-07">
      <stop
         id="stop1253"
         offset="0%"
         stop-color="#7C72FF" />
      <stop
         id="stop1255"
         offset="100%"
         stop-color="#6D64F4" />
    </linearGradient>
    <path
       id="path-64"
       d="m 4.3889219,0.1856917 c -0.1441407,0 -0.2761094,0.0864427 -0.3337657,0.21770751 v 0 C 3.4113281,1.8620395 2.2530781,3.0190909 0.79373437,3.6638893 v 0 C 0.66176563,3.7227984 0.5765625,3.8527826 0.5765625,3.9981344 v 0 10.7713996 c 0,0.108213 0.0467656,0.209383 0.128125,0.279178 v 0 c 0.066625,0.05571 0.15054687,0.08708 0.23639063,0.08708 v 0 c 0.0198594,0 0.0390781,-0.0019 0.0582969,-0.0045 v 0 C 8.492125,13.933281 14.3295,8.0967984 15.527469,0.60894071 v 0 c 0.0173,-0.10565217 -0.01345,-0.21322529 -0.082,-0.29454545 v 0 C 15.375641,0.2330751 15.273781,0.1856917 15.166797,0.1856917 v 0 z M 1.306875,4.2305692 C 2.7585313,3.5313439 3.9231875,2.367249 4.6233906,0.91565217 v 0 H 14.733094 C 13.463375,7.7484664 8.1423438,13.066933 1.306875,14.33732 v 0 z" />
    <linearGradient
       id="linearGradient-66"
       y2="0.5000028"
       x2="1.0000107"
       y1="0.5000028"
       x1="-1.3497313e-05">
      <stop
         id="stop1259"
         offset="0%"
         stop-color="#7C72FF" />
      <stop
         id="stop1261"
         offset="100%"
         stop-color="#6D64F4" />
    </linearGradient>
    <linearGradient
       x1="0.60148615"
       y1="0.5"
       x2="0.048756126"
       y2="0.56844527"
       id="linearGradient-1">
      <stop
         stop-color="#88F3E2"
         stop-opacity="0"
         offset="0%"
         id="stop1427" />
      <stop
         stop-color="#50E3C2"
         offset="100%"
         id="stop1429" />
    </linearGradient>
    <linearGradient
       inkscape:collect="always"
       xlink:href="#linearGradient-1"
       id="linearGradient1443"
       x1="1054.6571"
       y1="1725.3372"
       x2="989.86493"
       y2="1733.3605"
       gradientTransform="scale(0.77630471,1.288154)"
       gradientUnits="userSpaceOnUse" />
  </defs>
  <g
     fill-rule="evenodd"
     fill="none"
     stroke-width="1"
     stroke="none"
     id="GIFOS">
    <g
       transform="translate(-147,-2099)"
       id="16-UI-Kit-Modo-Nocturno">
      <g
         transform="translate(147,2099)"
         id="camara-modo-noc">
        <g
           id="Group-97">
          <path
             fill="#37383c"
             id="Fill-1"
             d="m 103.12999,96.850644 c 0,4.706326 -3.852718,8.556546 -8.561952,8.556546 H 18.034491 c -4.709235,0 -8.5619535,-3.85022 -8.5619535,-8.556546 V 66.614272 c 0,-4.705684 3.8527185,-8.555905 8.5619535,-8.555905 h 76.533547 c 4.709234,0 8.561952,3.850221 8.561952,8.555905 z" />
          <g
             transform="translate(8.328125,57.055375)"
             id="Group-5">
            <mask
               fill="#ffffff"
               id="mask-2">
              <use
                 height="100%"
                 width="100%"
                 y="0"
                 x="0"
                 id="use1267"
                 xlink:href="#path-1" />
            </mask>
            <g
               id="Clip-4" />
            <path
               mask="url(#mask-2)"
               fill="url(#linearGradient-3)"
               id="Fill-3"
               d="m 9.70675,0.31247431 c -5.1019375,0 -9.25254688,4.14796839 -9.25254688,9.24616599 v 0 30.2370117 c 0,5.098198 4.15060938,9.246807 9.25254688,9.246807 v 0 h 76.532906 c 5.101938,0 9.253188,-4.148609 9.253188,-9.246807 v 0 -30.2370117 c 0,-5.0981976 -4.15125,-9.24616599 -9.253188,-9.24616599 v 0 z M 1.8353906,39.795652 V 9.5586403 c 0,-4.3368616 3.5317656,-7.8656442 7.8713594,-7.8656442 v 0 h 76.532906 c 4.339594,0 7.872,3.5287826 7.872,7.8656442 v 0 30.2370117 c 0,4.337502 -3.532406,7.866285 -7.872,7.866285 v 0 H 9.70675 c -4.3395938,0 -7.8713594,-3.528783 -7.8713594,-7.866285 z" />
          </g>
          <path
             fill="#37383c"
             id="Fill-6"
             d="m 111.9136,32.421963 c 0,17.170719 -13.927188,31.091834 -31.107469,31.091834 -17.17964,0 -31.106828,-13.921115 -31.106828,-31.091834 0,-17.17136 13.927188,-31.0918342 31.106828,-31.0918342 17.180281,0 31.107469,13.9204742 31.107469,31.0918342" />
          <g
             transform="translate(48.6875,0.067233)"
             id="Group-10">
            <mask
               fill="#ffffff"
               id="mask-5">
              <use
                 height="100%"
                 width="100%"
                 y="0"
                 x="0"
                 id="use1274"
                 xlink:href="#path-4" />
            </mask>
            <g
               id="Clip-9" />
            <path
               mask="url(#mask-5)"
               fill="url(#linearGradient-6)"
               id="Fill-8"
               d="m 32.119016,0.573083 c -17.533266,0 -31.79742225,14.257281 -31.79742225,31.782095 v 0 c 0,17.524814 14.26415625,31.781454 31.79742225,31.781454 v 0 c 17.533265,0 31.798062,-14.25664 31.798062,-31.781454 v 0 c 0,-17.524814 -14.264797,-31.782095 -31.798062,-31.782095 z M 1.7027812,32.355178 C 1.7027812,15.5917 15.348094,1.9536047 32.119016,1.9536047 v 0 c 16.771562,0 30.416234,13.6380953 30.416234,30.4015733 v 0 c 0,16.762838 -13.644672,30.400933 -30.416234,30.400933 v 0 c -16.770922,0 -30.4162348,-13.638095 -30.4162348,-30.400933 z" />
          </g>
          <path
             fill="#37383c"
             id="Fill-11"
             d="m 45.209739,41.26537 c 0,12.287668 -9.966844,22.248427 -22.260437,22.248427 -12.293594,0 -22.25851606,-9.960759 -22.25851606,-22.248427 0,-12.288308 9.96492206,-22.249067 22.25851606,-22.249067 12.293593,0 22.260437,9.960759 22.260437,22.249067" />
          <g
             transform="translate(0,17.996087)"
             id="Group-15">
            <mask
               fill="#ffffff"
               id="mask-8">
              <use
                 height="100%"
                 width="100%"
                 y="0"
                 x="0"
                 id="use1281"
                 xlink:href="#path-7" />
            </mask>
            <g
               id="Clip-14" />
            <path
               mask="url(#mask-8)"
               fill="url(#linearGradient-9)"
               id="Fill-13"
               d="m 0,23.269091 c 0,12.648166 10.295484,22.938688 22.94975,22.938688 v 0 c 12.655547,0 22.951031,-10.290522 22.951031,-22.938688 v 0 c 0,-12.648166 -10.295484,-22.93868784 -22.951031,-22.93868784 v 0 C 10.295484,0.33040316 0,10.620925 0,23.269091 m 1.3811875,0 c 0,-11.88683 9.6753595,-21.5581661 21.5685625,-21.5581661 v 0 c 11.892562,0 21.569203,9.6713361 21.569203,21.5581661 v 0 c 0,11.88683 -9.676641,21.558166 -21.569203,21.558166 v 0 c -11.893203,0 -21.5685625,-9.671336 -21.5685625,-21.558166" />
          </g>
          <path
             fill="#37383c"
             id="Fill-16"
             d="m 86.336134,32.421643 c 0,3.053027 -2.475375,5.527209 -5.529875,5.527209 -3.053859,0 -5.529875,-2.474182 -5.529875,-5.527209 0,-3.052388 2.476016,-5.52657 5.529875,-5.52657 3.0545,0 5.529875,2.474182 5.529875,5.52657" />
          <g
             transform="translate(74.953125,26.320198)"
             id="Group-20">
            <mask
               fill="#ffffff"
               id="mask-11">
              <use
                 height="100%"
                 width="100%"
                 y="0"
                 x="0"
                 id="use1288"
                 xlink:href="#path-10" />
            </mask>
            <g
               id="Clip-19" />
            <path
               mask="url(#mask-11)"
               fill="url(#linearGradient-12)"
               id="Fill-18"
               d="m 0.01857813,6.1015731 c 0,3.215668 2.61759377,5.8319999 5.83481247,5.8319999 v 0 c 3.2172188,0 5.8348124,-2.6163319 5.8348124,-5.8319999 v 0 c 0,-3.215668 -2.6175936,-5.83199998 -5.8348124,-5.83199998 v 0 c -3.2172187,0 -5.83481247,2.61633198 -5.83481247,5.83199998 m 0.61051562,0 c 0,-2.8795019 2.34340625,-5.22177863 5.22429685,-5.22177863 v 0 c 2.8808907,0 5.2249374,2.34227673 5.2249374,5.22177863 v 0 c 0,2.879502 -2.3440467,5.2224189 -5.2249374,5.2224189 v 0 c -2.8808906,0 -5.22429685,-2.3429169 -5.22429685,-5.2224189" />
          </g>
          <path
             fill="#37383c"
             id="Fill-21"
             d="m 41.019731,105.40738 v 0.29134 c 0,3.85663 3.126891,6.98201 6.984735,6.98201 h 16.592187 c 3.859766,0 6.986656,-3.12538 6.986656,-6.98201 v -0.29134 z" />
          <g
             transform="translate(39.71875,104.43878)"
             id="Group-25">
            <mask
               fill="#ffffff"
               id="mask-14">
              <use
                 height="100%"
                 width="100%"
                 y="0"
                 x="0"
                 id="use1295"
                 xlink:href="#path-13" />
            </mask>
            <g
               id="Clip-24" />
            <path
               mask="url(#mask-14)"
               fill="url(#linearGradient-15)"
               id="Fill-23"
               d="m 1.3011094,0.27853755 c -0.38181253,0 -0.6912344,0.30863241 -0.6912344,0.69026087 v 0 0.29134388 c 0,4.2305692 3.4446406,7.6716285 7.6759688,7.6716285 v 0 H 24.877391 c 4.23325,0 7.67789,-3.4410593 7.67789,-7.6716285 v 0 -0.29134388 c 0,-0.38162846 -0.309422,-0.69026087 -0.690594,-0.69026087 v 0 z M 2.003875,1.6590593 h 29.157406 c -0.206281,3.2841818 -2.946234,5.89283 -6.28389,5.89283 v 0 H 8.2858438 c -3.3357344,0 -6.0756876,-2.6086482 -6.2819688,-5.89283 z" />
          </g>
          <g
             transform="translate(55.09375,111.48225)"
             id="Group-28">
            <mask
               fill="#ffffff"
               id="mask-17">
              <use
                 height="100%"
                 width="100%"
                 y="0"
                 x="0"
                 id="use1301"
                 xlink:href="#path-16" />
            </mask>
            <g
               id="Clip-27" />
            <path
               mask="url(#mask-17)"
               fill="url(#linearGradient-18)"
               id="Fill-26"
               d="M 0.51698438,1.1986719 V 48.694127 c 0,0.380988 0.30878124,0.68962 0.69059372,0.68962 v 0 c 0.3818125,0 0.6905938,-0.308632 0.6905938,-0.68962 v 0 -47.4954551 c 0,-0.38226874 -0.3087813,-0.69026083 -0.6905938,-0.69026083 v 0 c -0.38181248,0 -0.69059372,0.30799209 -0.69059372,0.69026083" />
          </g>
          <g
             transform="translate(7.046875,111.48225)"
             id="Group-31">
            <mask
               fill="#ffffff"
               id="mask-20">
              <use
                 height="100%"
                 width="100%"
                 y="0"
                 x="0"
                 id="use1307"
                 xlink:href="#path-19" />
            </mask>
            <g
               id="Clip-30" />
            <path
               mask="url(#mask-20)"
               fill="url(#linearGradient-21)"
               id="Fill-29"
               d="M 48.766297,0.71011067 0.68995312,48.766482 c -0.27034375,0.269573 -0.27034375,0.706269 0,0.976482 v 0 c 0.13453125,0.134467 0.31134378,0.2017 0.48815628,0.2017 v 0 c 0.1768125,0 0.353625,-0.06723 0.4881562,-0.2017 v 0 L 49.742609,1.6865929 c 0.269703,-0.2702135 0.269703,-0.70626879 0,-0.97648223 v 0 c -0.134531,-0.1344664 -0.311343,-0.2016996 -0.488156,-0.2016996 v 0 c -0.176812,0 -0.353625,0.0672332 -0.488156,0.2016996" />
          </g>
          <g
             transform="translate(55.09375,111.48225)"
             id="Group-34">
            <mask
               fill="#ffffff"
               id="mask-23">
              <use
                 height="100%"
                 width="100%"
                 y="0"
                 x="0"
                 id="use1313"
                 xlink:href="#path-22" />
            </mask>
            <g
               id="Clip-33" />
            <path
               mask="url(#mask-23)"
               fill="url(#linearGradient-24)"
               id="Fill-32"
               d="m 0.71942187,0.71011067 c -0.26970312,0.27021344 -0.26970312,0.70626873 0,0.97648223 v 0 L 48.795766,49.742964 c 0.135171,0.134467 0.311984,0.2017 0.488796,0.2017 v 0 c 0.176172,0 0.352985,-0.06723 0.488157,-0.2017 v 0 c 0.269703,-0.270213 0.269703,-0.706909 0,-0.976482 v 0 L 1.6957344,0.71011067 C 1.5612031,0.57564427 1.3843906,0.50841107 1.2075781,0.50841107 v 0 c -0.1768125,0 -0.35362497,0.0672332 -0.48815623,0.2016996" />
          </g>
          <g
             transform="translate(17.296875,91.632451)"
             id="Group-37">
            <mask
               fill="#ffffff"
               id="mask-26">
              <use
                 height="100%"
                 width="100%"
                 y="0"
                 x="0"
                 id="use1319"
                 xlink:href="#path-25" />
            </mask>
            <g
               id="Clip-36" />
            <path
               mask="url(#mask-26)"
               fill="url(#linearGradient-27)"
               id="Fill-35"
               d="m 0.96221875,0.39379447 c -0.38245313,0 -0.69059375,0.30863241 -0.69059375,0.69026083 v 0 5.1321344 c 0,0.3809882 0.30814062,0.6902609 0.69059375,0.6902609 v 0 H 26.432828 c 0.381813,0 0.691234,-0.3092727 0.691234,-0.6902609 v 0 -5.1321344 c 0,-0.38162842 -0.309421,-0.69026083 -0.691234,-0.69026083 v 0 z M 1.6528125,5.5252885 H 25.742234 V 1.7743162 H 1.6528125 Z" />
          </g>
          <g
             transform="translate(46.765625,91.632451)"
             id="Group-40">
            <mask
               fill="#ffffff"
               id="mask-29">
              <use
                 height="100%"
                 width="100%"
                 y="0"
                 x="0"
                 id="use1325"
                 xlink:href="#path-28" />
            </mask>
            <g
               id="Clip-39" />
            <path
               mask="url(#mask-29)"
               fill="url(#linearGradient-30)"
               id="Fill-38"
               d="m 1.2447344,0.39379447 c -0.38181253,0 -0.69059377,0.30863241 -0.69059377,0.69026083 v 0 5.1321344 c 0,0.3809882 0.30878124,0.6902609 0.69059377,0.6902609 v 0 h 5.2447968 c 0.3818126,0 0.6905938,-0.3092727 0.6905938,-0.6902609 v 0 -5.1321344 c 0,-0.38162842 -0.3087812,-0.69026083 -0.6905938,-0.69026083 v 0 z M 1.9353281,5.5252885 H 5.7989375 V 1.7743162 H 1.9353281 Z" />
          </g>
          <g
             transform="translate(17.296875,83.948656)"
             id="Group-43">
            <mask
               fill="#ffffff"
               id="mask-32">
              <use
                 height="100%"
                 width="100%"
                 y="0"
                 x="0"
                 id="use1331"
                 xlink:href="#path-31" />
            </mask>
            <g
               id="Clip-42" />
            <path
               mask="url(#mask-32)"
               fill="url(#linearGradient-33)"
               id="Fill-41"
               d="m 0.96221875,0.37458498 c -0.38245313,0 -0.69059375,0.30799209 -0.69059375,0.69026082 v 0 c 0,0.3809882 0.30814062,0.6902609 0.69059375,0.6902609 v 0 H 26.432828 c 0.381813,0 0.691234,-0.3092727 0.691234,-0.6902609 v 0 c 0,-0.38226873 -0.309421,-0.69026082 -0.691234,-0.69026082 v 0 z" />
          </g>
          <g
             transform="translate(17.296875,76.905178)"
             id="Group-46">
            <mask
               fill="#ffffff"
               id="mask-35">
              <use
                 height="100%"
                 width="100%"
                 y="0"
                 x="0"
                 id="use1337"
                 xlink:href="#path-34" />
            </mask>
            <g
               id="Clip-45" />
            <path
               mask="url(#mask-35)"
               fill="url(#linearGradient-36)"
               id="Fill-44"
               d="m 0.96221875,0.42901186 c -0.38245313,0 -0.69059375,0.30927273 -0.69059375,0.69026084 v 0 c 0,0.3816285 0.30814062,0.6909012 0.69059375,0.6909012 v 0 H 35.958281 c 0.381813,0 0.690594,-0.3092727 0.690594,-0.6909012 v 0 c 0,-0.38098811 -0.308781,-0.69026084 -0.690594,-0.69026084 v 0 z" />
          </g>
          <polygon
             points="117.44751,66.867773 105.8727,73.548192 105.8727,89.917236 117.44751,96.597014 "
             fill="#37383c"
             id="Fill-47" />
          <g
             transform="translate(105.0625,66.019802)"
             id="Group-51">
            <mask
               fill="#ffffff"
               id="mask-38">
              <use
                 height="100%"
                 width="100%"
                 y="0"
                 x="0"
                 id="use1344"
                 xlink:href="#path-37" />
            </mask>
            <g
               id="Clip-50" />
            <path
               mask="url(#mask-38)"
               fill="url(#linearGradient-39)"
               id="Fill-49"
               d="M 12.039906,0.24972332 0.46445313,6.9301423 C 0.25176563,7.0543636 0.11979687,7.2816759 0.11979687,7.5281976 v 0 16.3696834 c 0,0.246522 0.13196876,0.473834 0.34465626,0.597415 v 0 L 12.039906,31.175715 c 0.105703,0.06083 0.226141,0.09221 0.345297,0.09221 v 0 c 0.117875,0 0.238313,-0.03138 0.345297,-0.09221 v 0 c 0.212688,-0.123581 0.345297,-0.351533 0.345297,-0.598055 v 0 -29.72988134 c 0,-0.24652174 -0.132609,-0.473834 -0.345297,-0.59805534 v 0 c -0.106984,-0.06083 -0.226141,-0.0915652 -0.345938,-0.0915652 v 0 c -0.119156,0 -0.238312,0.0307352 -0.344656,0.0915652 z M 1.5003438,23.498964 V 7.9264743 L 11.694609,2.0445296 V 29.381549 Z" />
          </g>
          <polygon
             points="122.28224,62.178481 117.44745,64.968339 117.44745,98.495296 122.28224,101.28643 "
             fill="#37383c"
             id="Fill-52" />
          <g
             transform="translate(116.59375,60.897273)"
             id="Group-56">
            <mask
               fill="#ffffff"
               id="mask-41">
              <use
                 height="100%"
                 width="100%"
                 y="0"
                 x="0"
                 id="use1351"
                 xlink:href="#path-40" />
            </mask>
            <g
               id="Clip-55" />
            <path
               mask="url(#mask-41)"
               fill="url(#linearGradient-42)"
               id="Fill-54"
               d="M 5.3428125,0.68321739 0.50865625,3.4737154 C 0.29532813,3.5960158 0.16335937,3.8246087 0.16335937,4.0711304 v 0 33.5269566 c 0,0.246522 0.13196876,0.475115 0.34529688,0.598055 v 0 l 4.83415625,2.791139 c 0.1069844,0.06147 0.2274219,0.0922 0.3459375,0.0922 v 0 c 0.1185156,0 0.2389531,-0.03073 0.3452969,-0.0922 v 0 C 6.2467344,40.8637 6.3793438,40.636387 6.3793438,40.389225 v 0 -39.1079523 c 0,-0.2465217 -0.1326094,-0.47447428 -0.3452969,-0.59805531 v 0 C 5.9277031,0.62174704 5.8079062,0.59101186 5.68875,0.59101186 v 0 c -0.1197969,0 -0.2389531,0.0307352 -0.3459375,0.0922055 z M 1.5445469,37.19981 V 4.4700474 L 4.9975156,2.4780237 V 39.193115 Z" />
          </g>
          <path
             fill="#37383c"
             id="Fill-57"
             d="M 84.732714,8.3860293 V 23.622353 c 2.173,0.959194 3.917422,2.703415 4.876438,4.874728 H 104.85346 C 103.20578,18.192472 95.041652,10.032923 84.732714,8.3860293" />
          <g
             transform="translate(83.921875,7.751028)"
             id="Group-61">
            <mask
               fill="#ffffff"
               id="mask-44">
              <use
                 height="100%"
                 width="100%"
                 y="0"
                 x="0"
                 id="use1358"
                 xlink:href="#path-43" />
            </mask>
            <g
               id="Clip-60" />
            <path
               mask="url(#mask-44)"
               fill="url(#linearGradient-45)"
               id="Fill-59"
               d="m 0.47598438,0.24203953 c -0.11531251,0.099249 -0.1819375,0.24203952 -0.1819375,0.39315415 v 0 15.23696432 c 0,0.204261 0.12107812,0.388672 0.30814062,0.471913 v 0 c 2.0634531,0.91117 3.7015312,2.548459 4.6131406,4.610917 v 0 c 0.081359,0.186972 0.2677813,0.307352 0.4715,0.307352 v 0 H 20.931781 c 0.151188,0 0.294688,-0.06595 0.393985,-0.180569 v 0 c 0.09737,-0.115898 0.139656,-0.268293 0.116593,-0.416846 v 0 C 19.747906,10.072814 11.49025,1.818498 0.89303125,0.12486166 v 0 C 0.86676562,0.12101976 0.8405,0.11909881 0.81423437,0.11909881 v 0 c -0.123,0 -0.2434375,0.0429012 -0.33824999,0.12294072 M 1.327375,15.541755 V 1.2479763 C 10.996328,3.0434229 18.52175,10.566498 20.318062,20.23015 v 0 H 6.0186719 C 5.027625,18.178577 3.3812188,16.531043 1.327375,15.541755" />
          </g>
          <path
             fill="#37383c"
             id="Fill-62"
             d="M 76.881278,8.3860293 C 66.571059,10.032923 58.407575,18.192472 56.759247,28.497081 h 15.243672 c 0.960937,-2.171313 2.704719,-3.915534 4.878359,-4.874728 z" />
          <g
             transform="translate(55.734375,7.751028)"
             id="Group-66">
            <mask
               fill="#ffffff"
               id="mask-47">
              <use
                 height="100%"
                 width="100%"
                 y="0"
                 x="0"
                 id="use1365"
                 xlink:href="#path-46" />
            </mask>
            <g
               id="Clip-65" />
            <path
               mask="url(#mask-47)"
               fill="url(#linearGradient-48)"
               id="Fill-64"
               d="M 21.065672,0.12486166 C 10.467813,1.818498 2.208875,10.072814 0.51442187,20.664925 v 0 c -0.0237031,0.148553 0.0192188,0.300948 0.11723438,0.416846 v 0 c 0.0986563,0.114616 0.24151562,0.180569 0.39398435,0.180569 v 0 H 16.268672 c 0.205,0 0.3895,-0.12038 0.472781,-0.307352 v 0 c 0.91225,-2.063099 2.55161,-3.700387 4.614422,-4.610917 v 0 c 0.187062,-0.08324 0.3075,-0.267652 0.3075,-0.471913 v 0 -15.23696432 c 0,-0.15111463 -0.06598,-0.29390514 -0.181297,-0.39315415 v 0 C 21.387266,0.162 21.266828,0.11909881 21.143828,0.11909881 v 0 c -0.02562,0 -0.05189,0.001921 -0.07816,0.005763 M 20.630687,1.2479763 V 15.541755 c -2.053203,0.988008 -3.70089,2.634901 -4.691937,4.688395 v 0 H 1.6387187 C 3.4350313,10.565217 10.961094,3.0434229 20.630687,1.2479763" />
          </g>
          <path
             fill="#37383c"
             id="Fill-67"
             d="M 72.003111,36.34486 H 56.759439 c 1.647688,10.305889 9.811813,18.464158 20.122031,20.112332 V 41.220228 C 74.70783,40.260394 72.964048,38.516813 72.003111,36.34486" />
          <g
             transform="translate(55.734375,35.284625)"
             id="Group-71">
            <mask
               fill="#ffffff"
               id="mask-50">
              <use
                 height="100%"
                 width="100%"
                 y="0"
                 x="0"
                 id="use1372"
                 xlink:href="#path-49" />
            </mask>
            <g
               id="Clip-70" />
            <path
               mask="url(#mask-50)"
               fill="url(#linearGradient-51)"
               id="Fill-69"
               d="m 1.0256406,0.54426877 c -0.15246873,0 -0.2953281,0.0665929 -0.39398435,0.18120949 v 0 C 0.53364062,0.84073518 0.49071875,0.99313044 0.51442187,1.1423241 v 0 C 2.208875,11.733154 10.466531,19.988111 21.065672,21.683028 v 0 c 0.02691,0.0038 0.05381,0.0064 0.08136,0.0064 v 0 c 0.121719,0 0.241516,-0.04354 0.335047,-0.122941 v 0 c 0.115313,-0.09861 0.181297,-0.242039 0.181297,-0.394435 v 0 -15.2363238 c 0,-0.2049012 -0.120438,-0.3899525 -0.3075,-0.4725533 v 0 C 19.293063,4.5526482 17.653703,2.9153597 16.741453,0.85162055 v 0 C 16.658172,0.66528854 16.473672,0.54426877 16.268672,0.54426877 v 0 z M 1.6387187,1.5764585 H 15.93875 c 0.991047,2.0528538 2.638734,3.699747 4.691937,4.6890356 v 0 14.2937789 C 10.961094,18.763186 3.4350313,11.240111 1.6387187,1.5764585 Z" />
          </g>
          <path
             fill="#37383c"
             id="Fill-72"
             d="M 84.732714,56.456936 C 95.041652,54.808762 103.20578,46.650493 104.85346,36.344604 H 89.609152 c -0.959016,2.171952 -2.703438,3.916174 -4.876438,4.875367 z" />
          <g
             transform="translate(83.921875,35.284625)"
             id="Group-76">
            <mask
               fill="#ffffff"
               id="mask-53">
              <use
                 height="100%"
                 width="100%"
                 y="0"
                 x="0"
                 id="use1379"
                 xlink:href="#path-52" />
            </mask>
            <g
               id="Clip-75" />
            <path
               mask="url(#mask-53)"
               fill="url(#linearGradient-54)"
               id="Fill-74"
               d="m 5.6868281,0.54426877 c -0.2037187,0 -0.3901406,0.12101977 -0.4715,0.30735178 v 0 C 4.3037187,2.9147194 2.6656406,4.5513676 0.6021875,5.4631779 v 0 C 0.415125,5.5457787 0.29404688,5.73083 0.29404688,5.9357312 v 0 15.2363238 c 0,0.152396 0.066625,0.295826 0.1819375,0.394435 v 0 c 0.0941719,0.0794 0.2126875,0.122941 0.33504687,0.122941 v 0 c 0.0269063,0 0.0538125,-0.0026 0.082,-0.0064 v 0 C 11.49025,19.988111 19.747906,11.733154 21.442359,1.1423241 v 0 c 0.02306,-0.14919366 -0.01922,-0.30158892 -0.116593,-0.41684584 v 0 c -0.0993,-0.1146166 -0.242797,-0.18120949 -0.393985,-0.18120949 v 0 z M 1.327375,6.2654941 C 3.3812188,5.2755652 5.027625,3.6286719 6.0186719,1.5764585 v 0 H 20.318062 C 18.523031,11.240111 10.996328,18.763186 1.327375,20.559273 v 0 z" />
          </g>
          <path
             fill="#37383c"
             id="Fill-77"
             d="m 25.925966,24.393294 v 10.77204 c 1.536218,0.678095 2.770062,1.910703 3.447843,3.446181 H 40.151684 C 38.986387,31.326638 33.214356,25.557389 25.925966,24.393294" />
          <g
             transform="translate(24.984375,23.758933)"
             id="Group-81">
            <mask
               fill="#ffffff"
               id="mask-56">
              <use
                 height="100%"
                 width="100%"
                 y="0"
                 x="0"
                 id="use1386"
                 xlink:href="#path-55" />
            </mask>
            <g
               id="Clip-80" />
            <path
               mask="url(#mask-56)"
               fill="url(#linearGradient-57)"
               id="Fill-79"
               d="m 0.7046875,0.35601581 c -0.0813594,0.0704348 -0.128125,0.17096443 -0.128125,0.27853755 v 0 10.77203964 c 0,0.144711 0.0852031,0.275336 0.21717187,0.333605 v 0 c 1.45934373,0.644158 2.61759373,1.801849 3.26142183,3.26049 v 0 c 0.057656,0.131265 0.189625,0.217067 0.3337657,0.217067 v 0 H 15.166797 c 0.106984,0 0.208844,-0.04674 0.278672,-0.128063 v 0 c 0.06855,-0.08132 0.0993,-0.189534 0.082,-0.294546 v 0 C 14.3295,7.3066482 8.492125,1.4714466 0.999375,0.27341502 v 0 c -0.0185781,-0.002561 -0.0371563,-0.003842 -0.0557344,-0.003842 v 0 c -0.087125,0 -0.1716875,0.0300949 -0.23895312,0.0864427 M 1.306875,11.173518 V 1.0680474 c 6.8354688,1.2691068 12.1565,6.5875731 13.426219,13.4197476 v 0 H 4.6233906 C 3.9231875,13.037478 2.7585313,11.872743 1.306875,11.173518" />
          </g>
          <path
             fill="#37383c"
             id="Fill-82"
             d="M 20.375206,24.393294 C 13.086175,25.557389 7.3141438,31.326638 6.1488469,38.611515 H 16.926722 c 0.679062,-1.535478 1.911625,-2.768086 3.448484,-3.446181 z" />
          <g
             transform="translate(5.765625,23.758933)"
             id="Group-86">
            <mask
               fill="#ffffff"
               id="mask-59">
              <use
                 height="100%"
                 width="100%"
                 y="0"
                 x="0"
                 id="use1393"
                 xlink:href="#path-58" />
            </mask>
            <g
               id="Clip-85" />
            <path
               mask="url(#mask-59)"
               fill="url(#linearGradient-60)"
               id="Fill-84"
               d="M 14.551797,0.27341502 C 7.0603281,1.4714466 1.2203906,7.3066482 0.02242188,14.795146 v 0 c -0.01601563,0.105012 0.01345312,0.213226 0.08328125,0.294546 v 0 c 0.0698281,0.08132 0.17104687,0.128063 0.27739062,0.128063 v 0 H 11.160969 c 0.14414,0 0.275469,-0.0858 0.333765,-0.217067 v 0 c 0.64511,-1.459281 1.804,-2.616973 3.262704,-3.26049 v 0 c 0.131968,-0.05827 0.217812,-0.188894 0.217812,-0.333605 v 0 -10.77203964 c 0,-0.10757312 -0.04741,-0.20810277 -0.128766,-0.27853755 v 0 c -0.06727,-0.0563478 -0.152468,-0.0864427 -0.238953,-0.0864427 v 0 c -0.01858,0 -0.03716,0.001281 -0.05573,0.003842 M 14.243656,1.0680474 V 11.173518 c -1.450375,0.698585 -2.615672,1.86332 -3.316515,3.314277 v 0 H 0.8174375 C 2.0871563,7.6556205 7.4081875,2.3371542 14.243656,1.0680474" />
          </g>
          <path
             fill="#37383c"
             id="Fill-87"
             d="M 16.92653,44.159919 H 6.1492953 C 7.3145922,51.445437 13.085983,57.214046 20.375014,58.378781 V 47.606741 C 18.838155,46.928006 17.605592,45.695398 16.92653,44.159919" />
          <g
             transform="translate(5.765625,43.608735)"
             id="Group-91">
            <mask
               fill="#ffffff"
               id="mask-62">
              <use
                 height="100%"
                 width="100%"
                 y="0"
                 x="0"
                 id="use1400"
                 xlink:href="#path-61" />
            </mask>
            <g
               id="Clip-90" />
            <path
               mask="url(#mask-62)"
               fill="url(#linearGradient-63)"
               id="Fill-89"
               d="m 0.38309375,0.1856917 c -0.10634375,0 -0.2075625,0.0473834 -0.27739062,0.12870356 v 0 C 0.035875,0.39571542 0.00640625,0.50328854 0.02242188,0.60894071 v 0 C 1.2203906,8.0967984 7.0590469,13.933281 14.551797,15.131312 v 0 c 0.01922,0.0026 0.03844,0.0045 0.05766,0.0045 v 0 c 0.08648,0 0.171047,-0.03138 0.237031,-0.08708 v 0 c 0.08136,-0.0698 0.128766,-0.170965 0.128766,-0.279178 v 0 -10.7713996 c 0,-0.1453518 -0.08584,-0.275336 -0.217812,-0.3342451 v 0 C 13.298734,3.0197312 12.139844,1.8626798 11.494734,0.40339921 v 0 C 11.436438,0.27213439 11.305109,0.1856917 11.160969,0.1856917 v 0 z M 0.8174375,0.91565217 H 10.927141 c 0.700843,1.45223713 1.86614,2.61697233 3.316515,3.31491703 v 0 V 14.33732 C 7.4081875,13.066933 2.0871563,7.7484664 0.8174375,0.91565217 Z" />
          </g>
          <path
             fill="#37383c"
             id="Fill-92"
             d="M 25.925966,58.378845 C 33.214356,57.21411 38.986387,51.445501 40.151684,44.159983 H 29.373809 c -0.677781,1.535479 -1.911625,2.768087 -3.447843,3.446822 z" />
          <g
             transform="translate(24.984375,43.608735)"
             id="Group-96">
            <mask
               fill="#ffffff"
               id="mask-65">
              <use
                 height="100%"
                 width="100%"
                 y="0"
                 x="0"
                 id="use1407"
                 xlink:href="#path-64" />
            </mask>
            <g
               id="Clip-95" />
            <path
               mask="url(#mask-65)"
               fill="url(#linearGradient-66)"
               id="Fill-94"
               d="m 4.3889219,0.1856917 c -0.1441407,0 -0.2761094,0.0864427 -0.3337657,0.21770751 v 0 C 3.4113281,1.8620395 2.2530781,3.0190909 0.79373437,3.6638893 v 0 C 0.66176563,3.7227984 0.5765625,3.8527826 0.5765625,3.9981344 v 0 10.7713996 c 0,0.108213 0.0467656,0.209383 0.128125,0.279178 v 0 c 0.066625,0.05571 0.15054687,0.08708 0.23639063,0.08708 v 0 c 0.0198594,0 0.0390781,-0.0019 0.0582969,-0.0045 v 0 C 8.492125,13.933281 14.3295,8.0967984 15.527469,0.60894071 v 0 c 0.0173,-0.10565217 -0.01345,-0.21322529 -0.082,-0.29454545 v 0 C 15.375641,0.2330751 15.273781,0.1856917 15.166797,0.1856917 v 0 z M 1.306875,4.2305692 C 2.7585313,3.5313439 3.9231875,2.367249 4.6233906,0.91565217 v 0 H 14.733094 C 13.463375,7.7484664 8.1423438,13.066933 1.306875,14.33732 v 0 z" />
          </g>
        </g>
      </g>
    </g>
  </g>
  <polygon
     id="element-luz-camara"
     points="855,2298 764,2245.1116 764,2204.173 855,2147 "
     style="fill:url(#linearGradient1443);fill-rule:nonzero;stroke:none;stroke-width:1"
     transform="matrix(1,0,0,0.98746377,-641.02691,-2115.0168)" />
</svg>
