<?xml version="1.0" encoding="UTF-8" standalone="no"?>
<svg
   xmlns:dc="http://purl.org/dc/elements/1.1/"
   xmlns:cc="http://creativecommons.org/ns#"
   xmlns:rdf="http://www.w3.org/1999/02/22-rdf-syntax-ns#"
   xmlns:svg="http://www.w3.org/2000/svg"
   xmlns="http://www.w3.org/2000/svg"
   xmlns:sodipodi="http://sodipodi.sourceforge.net/DTD/sodipodi-0.dtd"
   xmlns:inkscape="http://www.inkscape.org/namespaces/inkscape"
   width="20px"
   height="20px"
   viewBox="0 0 20 20"
   version="1.1"
   id="svg361"
   sodipodi:docname="icon-suggestion.svg"
   inkscape:version="1.0 (4035a4fb49, 2020-05-01)">
  <metadata
     id="metadata365">
    <rdf:RDF>
      <cc:Work
         rdf:about="">
        <dc:format>image/svg+xml</dc:format>
        <dc:type
           rdf:resource="http://purl.org/dc/dcmitype/StillImage" />
        <dc:title>icon-search</dc:title>
      </cc:Work>
    </rdf:RDF>
  </metadata>
  <sodipodi:namedview
     inkscape:document-rotation="0"
     pagecolor="#ffffff"
     bordercolor="#666666"
     borderopacity="1"
     objecttolerance="10"
     gridtolerance="10"
     guidetolerance="10"
     inkscape:pageopacity="0"
     inkscape:pageshadow="2"
     inkscape:window-width="1920"
     inkscape:window-height="1017"
     id="namedview363"
     showgrid="false"
     inkscape:zoom="29.238865"
     inkscape:cx="10.128303"
     inkscape:cy="10.769098"
     inkscape:window-x="-8"
     inkscape:window-y="-8"
     inkscape:window-maximized="1"
     inkscape:current-layer="svg361" />
  <!-- Generator: Sketch 63.1 (92452) - https://sketch.com -->
  <title
     id="title345">icon-search</title>
  <desc
     id="desc347">Created with Sketch.</desc>
  <defs
     id="defs350">
    <path
       d="M8.5,0 C13.1944204,0 17,3.80557963 17,8.5 C17,10.4865245 16.3185332,12.3138839 15.1766205,13.7610573 L19.7071068,18.2928932 C20.0976311,18.6834175 20.0976311,19.3165825 19.7071068,19.7071068 C19.3165825,20.0976311 18.6834175,20.0976311 18.2928932,19.7071068 L18.2928932,19.7071068 L13.7610573,15.1766205 C12.3138839,16.3185332 10.4865245,17 8.5,17 C3.80557963,17 0,13.1944204 0,8.5 C0,3.80557963 3.80557963,0 8.5,0 Z M8.5,2 C4.91014913,2 2,4.91014913 2,8.5 C2,12.0898509 4.91014913,15 8.5,15 C10.2704128,15 11.8755097,14.2921984 13.0477521,13.1441339 L13.0928932,13.0928932 C13.1090201,13.0767663 13.1255608,13.0613054 13.1424811,13.0465104 C14.2921984,11.8755097 15,10.2704128 15,8.5 C15,4.91014913 12.0898509,2 8.5,2 Z"
       id="path-1" />
  </defs>
  <path
     sodipodi:nodetypes="cccccc"
     id="path1202"
     d="m 13.664325,15.101824 4.602185,4.600714 c 0,0 0.612554,0.661162 1.420079,0.01884 0.712004,-0.850918 -0.04341,-1.536859 -0.04341,-1.536859 l -4.541304,-4.519992 z"
     style="fill:#9baec2;fill-opacity:1;fill-rule:evenodd;stroke:#000000;stroke-width:0;stroke-linecap:butt;stroke-linejoin:miter;stroke-miterlimit:4;stroke-dasharray:none;stroke-opacity:1" />
  <ellipse
     ry="7.3369808"
     rx="7.349072"
     cy="8.4764214"
     cx="8.488512"
     id="path853"
     style="fill:none;fill-opacity:1;stroke:#9baec2;stroke-width:2.25192;stroke-miterlimit:4;stroke-dasharray:none;stroke-opacity:1" />
</svg>
